# xmcd
#
# Track frame offsets: 
#        225
#        26621
#        51701
#        76770
#        99040
#        123742
#        149340
#        167132
#        192190
#        211474
#        232364
#        248080
#        280148
#        323063
#
# Disc length: 4319 seconds
#
# Revision: 0
# Processed by: cddbd v1.5.2PL0 Copyright (c) Steve Scherf et al.
# Submitted via: ExactAudioCopy v0.99pb4
#
DISCID=cc10dc0e
DTITLE=Angela Brown and Jan Luley - Wings Of Blues
DYEAR=2004
DGENRE=Blues
TTITLE0=Saint James Infirmary Blues
TTITLE1=Jailhouse Blues
TTITLE2=Please Send Me Someone To Love
TTITLE3=Wild Turkey
TTITLE4=I'm A Fool
TTITLE5=Million Dollar Secret
TTITLE6=I Got A Good Thing
TTITLE7=Sunday Kind Of Love
TTITLE8=Can We Do That
TTITLE9=Oh, Daddy
TTITLE10=You Didn't Want What You Had
TTITLE11=Back Water Blues
TTITLE12=C.C.Rider
TTITLE13=boooo
EXTD=
EXTT0=
EXTT1=
EXTT2=
EXTT3=
EXTT4=
EXTT5=
EXTT6=
EXTT7=
EXTT8=
EXTT9=
EXTT10=
EXTT11=
EXTT12=
EXTT13=
PLAYORDER=
